HIERARCHY
ROOT Hips
{
	OFFSET	0.00	0.00	0.00
	CHANNELS 6 Xposition Yposition Zposition Zrotation Xrotation Yrotation
	JOINT Spine
	{
		OFFSET	 0.00	0.01	 0.00
		CHANNELS 3 Zrotation Xrotation Yrotation
		JOINT Spine1
		{
			OFFSET	 0.00	 2.45913012437421	 0.00
			CHANNELS 3 Zrotation Xrotation Yrotation
            JOINT Neck
            {
                OFFSET	 0.00	 2.48462964506057	 0.00
                CHANNELS 3 Zrotation Xrotation Yrotation
                JOINT Head
                {
                    OFFSET	 0.00	 0.927524780924562	 0.00
                    CHANNELS 3 Zrotation Xrotation Yrotation
                    End Site 
                    {
                        OFFSET	 0.00	 1.14999962169752	 0.00
                    }
                }
            }
			JOINT LeftShoulder
			{
				OFFSET	 0.00	 2.48462964506057	 0.00
				CHANNELS 3 Zrotation Xrotation Yrotation
				JOINT LeftUpArm
				{
					OFFSET	 0.00	 1.24881979654096	 0.00
					CHANNELS 3 Zrotation Xrotation Yrotation
					JOINT LeftForeArm
					{
						OFFSET	 0.00	2.59758046908119	 0.00
						CHANNELS 3 Zrotation Xrotation Yrotation
						JOINT LeftHand
						{
							OFFSET	 0.00	2.45542024364365	 0.00
							CHANNELS 3 Zrotation Xrotation Yrotation
							JOINT LeftHandThumb 
							{
								OFFSET	 0.00	0.00	 0.00
								CHANNELS 3 Zrotation Xrotation Yrotation
								End Site
								{
									OFFSET	 0.00	0.00	1.00000003353624
								}
							}
							JOINT L_Wrist_End 
							{
								OFFSET	 0.00	0.99999967115358	 0.00
								CHANNELS 3 Zrotation Xrotation Yrotation
								End Site 
								{
									OFFSET	 0.00	 0.00	 0.00
								}
							}
						}
					}
				}
			}
			JOINT RightShoulder
			{
				OFFSET	 0.00	 2.48462964506057	 0.00
				CHANNELS 3 Zrotation Xrotation Yrotation
				JOINT RightUpArm
				{
					OFFSET	 0.00	 1.24881979654096	 0.00
					CHANNELS 3 Zrotation Xrotation Yrotation
					JOINT RightForeArm
					{
						OFFSET	 0.00	2.59758046908119	 0.00
						CHANNELS 3 Zrotation Xrotation Yrotation
						JOINT RightHand
						{
							OFFSET	 0.00	2.45542024364365	 0.00
							CHANNELS 3 Zrotation Xrotation Yrotation
							JOINT RightHandThumb 
							{
								OFFSET	 0.00	0.00	 0.00
								CHANNELS 3 Zrotation Xrotation Yrotation
								End Site
								{
									OFFSET	 0.00	0.00	1.00000003353624
								}
							}
							JOINT R_Wrist_End 
							{
								OFFSET	 0.00	0.99999967115358	 0.00
								CHANNELS 3 Zrotation Xrotation Yrotation
								End Site 
								{
									OFFSET	 0.00	 0.00	 0.00
								}
							}
						}
					}
				}
			}
		}
	}
	JOINT LeftUpLeg
	{
		OFFSET	 1.2719394002717	 0.00	 0.00
		CHANNELS 3 Zrotation Xrotation Yrotation
		JOINT LeftLowLeg
		{
			OFFSET	 0.00	-4.3429100912261	 0.00
			CHANNELS 3 Zrotation Xrotation Yrotation
			JOINT LeftFoot
			{
				OFFSET	 0.00	-4.48767017425826	 0.00
				CHANNELS 3 Zrotation Xrotation Yrotation
				JOINT LeftToeBase
                {
                    OFFSET	 0.00	0.00	 1.51507020887566
                    CHANNELS 3 Zrotation Xrotation Yrotation
                    End Site 
                    {
                        OFFSET	 0.00	0.00	 0.75000010571191
                    }
                }
			}
		}
	}
	JOINT RightUpLeg
	{
		OFFSET	 -1.2719393604653	 0.00	 0.00
		CHANNELS 3 Zrotation Xrotation Yrotation
		JOINT RightLowLeg
		{
			OFFSET	 0.00	-4.3429100912261	 0.00
			CHANNELS 3 Zrotation Xrotation Yrotation
			JOINT RightFoot
			{
				OFFSET	 0.00	-4.48767017425826	 0.00
				CHANNELS 3 Zrotation Xrotation Yrotation
				JOINT RightToeBase
                {
                    OFFSET	 0.00	0.00	 1.51507020887566
                    CHANNELS 3 Zrotation Xrotation Yrotation
                    End Site 
                    {
                        OFFSET	 0.00	0.00	 0.749999965609858
                    }
                }   
			}
		}
	}
}
MOTION 
Frames:	13 
Frame Time: 0.02 
  -4.562659912109375 -0.4003390121459961 9.225430297851563 -55.8669 84.1284 468.231 -3.0482 -2.42179 0.125414 10.0308 4.81661 -2.75486 4.22238 47.837 -19.0355 151.511 -88.027 -227.949 -123.2962 -3.35103 10.1939 -19.3448 11.6249 53.5178 0.0 102.576 0.0 28.665 8.42869 -15.2766 0.0 0.0 0.0 0.0 0.0 0.0 116.5843 0.42263 -17.7537 28.334 8.60875 -37.1918 0.0 100.308 0.0 6.66049 -3.88575 32.9254 0.0 0.0 0.0 0.0 0.0 0.0 5.11526 -4.61327 5.81636 0.0 12.0418 0.0 -12.246 1.4848003 2.43218 0.0 -40.2343 0.0 2.82163 -15.7229 16.2681 0.0 22.073 0.0 14.3583 13.27431 4.33345 0.0 -41.227898 0.0 
  -4.5814599609375 -0.34476200103759763 9.230020141601562 -56.8147 83.8892 468.374 -2.88854 -2.37595 0.212581 9.6935 5.10814 -2.71218 4.04161 47.6604 -18.6027 149.718 -87.7759 -229.717 -123.0907 -3.23835 10.4788 -18.7353 11.9883 53.2359 0.0 102.542 0.0 27.7471 9.24824 -16.8699 0.0 0.0 0.0 0.0 0.0 0.0 116.6807 0.465047 -17.9196 28.3113 8.846 -37.1805 0.0 100.135 0.0 6.17955 -3.58769 32.8207 0.0 0.0 0.0 0.0 0.0 0.0 5.13652 -4.75914 6.43624 0.0 11.7074 0.0 -11.4209 1.7588997 2.91937 0.0 -40.5117 0.0 2.98446 -15.3535 16.3105 0.0 20.8421 0.0 15.3159 12.96816 3.27837 0.0 -42.2759 0.0 
  -4.602229919433594 -0.29381399154663085 9.232550048828125 -57.6809 83.7319 468.439 -2.74075 -2.30307 0.418081 9.21529 5.22397 -2.52862 4.1782 47.7677 -18.5536 147.558 -87.5376 -231.711 -122.8672 -3.06208 10.733 -18.1505 12.3789 53.1735 0.0 102.749 0.0 27.095 9.11977 -17.6192 0.0 0.0 0.0 0.0 0.0 0.0 116.8961 0.359005 -18.069 28.1811 9.06632 -37.158 0.0 99.8962 0.0 5.92521 -2.76474 33.2194 0.0 0.0 0.0 0.0 0.0 0.0 5.09061 -4.85619 6.79846 0.0 11.3496 0.0 -11.2753 1.9034996 3.39942 0.0 -40.428 0.0 3.15948 -15.0445 16.1929 0.0 20.2653 0.0 16.4555 12.10583 2.28369 0.0 -43.0795 0.0 
  -4.625329895019531 -0.24887899398803712 9.233560180664062 -58.1531 83.6432 468.229 -2.67335 -2.26386 0.558794 8.77521 5.29427 -2.40121 4.34498 48.0566 -18.6011 144.423 -87.4982 -234.576 -122.6349 -2.93641 10.8625 -17.6973 12.7764 53.2566 0.0 103.009 0.0 26.7093 8.53998 -17.8336 0.0 0.0 0.0 0.0 0.0 0.0 117.0372 0.42353 -18.4116 28.1445 9.25383 -37.0693 0.0 99.7759 0.0 5.45076 -2.38154 33.6847 0.0 0.0 0.0 0.0 0.0 0.0 5.06457 -5.00762 7.34924 0.0 11.1954 0.0 -11.0959 2.0397997 3.61341 0.0 -40.331398 0.0 3.35815 -14.7295 15.6227 0.0 20.3522 0.0 15.687 10.526569 1.34775 0.0 -42.6886 0.0 
  -4.649540100097656 -0.20862499237060547 9.234340209960937 -58.8622 83.6083 468.305 -2.71342 -2.30737 0.717628 8.46097 5.39356 -2.24971 4.47029 48.4178 -18.5946 141.201 -87.4817 -237.543 -122.517105 -2.93823 10.821 -17.3264 13.3559 53.5532 0.0 103.213 0.0 26.5536 7.83445 -18.0528 0.0 0.0 0.0 0.0 0.0 0.0 117.1266 0.440829 -18.2838 28.1302 9.18319 -37.389 0.0 99.8723 0.0 4.16251 -2.70489 32.8022 0.0 0.0 0.0 0.0 0.0 0.0 5.01628 -5.20427 7.85 0.0 11.1009 0.0 -10.9639 2.2224998 3.8009 0.0 -40.3961 0.0 3.55466 -14.5 14.7204 0.0 21.0265 0.0 14.3228 9.021931 0.687493 0.0 -42.5468 0.0 
  -4.675379943847656 -0.17084299087524413 9.234210205078124 -59.58 83.5799 468.474 -2.59859 -2.42899 0.89847 7.8958 5.50535 -2.08895 4.435 48.8039 -18.4358 139.05 -87.5388 -239.756 -122.3034 -2.82605 10.5864 -17.1264 13.8073 53.994 0.0 103.284 0.0 26.44 7.50997 -18.0987 0.0 0.0 0.0 0.0 0.0 0.0 117.3126 0.429877 -18.3183 28.0937 9.16906 -37.3152 0.0 99.9874 0.0 3.29591 -2.87622 32.3324 0.0 0.0 0.0 0.0 0.0 0.0 4.9802 -5.48438 8.16119 0.0 11.1414 0.0 -10.8474 2.3465004 4.06241 0.0 -40.409798 0.0 3.7403 -14.3051 13.6038 0.0 22.14 0.0 13.2586 7.7408 0.295774 0.0 -42.7981 0.0 
  -4.701329956054687 -0.13479900360107422 9.232760009765625 -60.2111 83.6537 468.614 -2.53997 -2.552 1.05773 7.34433 5.62711 -1.94721 4.48477 49.1222 -18.4116 137.16 -87.5693 -241.596 -122.1445 -2.80114 10.319 -17.0147 14.3018 54.5782 0.0 103.305 0.0 28.9191 6.9156 -12.8046 0.0 0.0 0.0 0.0 0.0 0.0 117.4341 0.368698 -18.1522 28.046 9.172 -37.3375 0.0 100.022 0.0 3.75286 -2.78222 33.7664 0.0 0.0 0.0 0.0 0.0 0.0 4.83468 -5.7457 8.20212 0.0 11.2122 0.0 -10.7736 2.4364004 4.53717 0.0 -40.4345 0.0 3.81283 -14.0507 12.2884 0.0 23.5966 0.0 12.9985 6.57594 0.141914 0.0 -43.3292 0.0 
  -4.7209100341796875 -0.09604229927062988 9.235859985351562 -62.762 84.0112 470.805 -2.53219 -2.98588 1.15752 6.5138 6.00311 -1.88665 4.58924 49.554 -18.5172 141.21 -87.3425 -237.537 -122.221 -2.65357 10.039 -16.7559 14.5394 54.7424 0.0 103.218 0.0 28.6217 6.96082 -13.1742 0.0 0.0 0.0 0.0 0.0 0.0 117.7386 0.417505 -17.9894 27.8185 9.09906 -37.2856 0.0 99.8864 0.0 2.90636 -2.39468 33.3271 0.0 0.0 0.0 0.0 0.0 0.0 3.88454 -5.12108 2.68582 0.0 9.35485 0.0 -11.48 2.521 9.43626 0.0 -40.0882 0.0 3.44941 -13.803 11.0042 0.0 25.1642 0.0 13.1349 5.77682 0.162579 0.0 -43.844 0.0 
  -4.74843994140625 -0.06441559791564941 9.232490234375 -63.9217 84.0426 471.716 -2.29733 -3.21398 1.25537 5.76846 6.01935 -1.81668 4.93933 49.776 -18.8842 139.737 -87.2747 -238.668 -122.081696 -2.59321 10.0293 -16.7316 14.7827 54.6811 0.0 103.216 0.0 27.9881 6.78768 -13.478 0.0 0.0 0.0 0.0 0.0 0.0 117.8825 0.271862 -17.9723 27.8299 9.11975 -37.1436 0.0 99.825 0.0 2.36762 -2.27501 32.7066 0.0 0.0 0.0 0.0 0.0 0.0 3.72015 -5.33102 1.44014 0.0 9.14233 0.0 -11.7466 2.4597998 10.6232 0.0 -40.077 0.0 3.44924 -13.564 9.59485 0.0 27.0389 0.0 13.6325 5.24734 0.378598 0.0 -44.0845 0.0 
  -4.778030090332031 -0.03601419925689697 9.2285400390625 -65.0326 84.1229 472.658 -2.05287 -3.42422 1.34765 4.96865 6.00617 -1.75297 5.30747 49.8435 -19.2505 137.739 -87.1735 -240.261 -121.9923 -2.54394 10.0158 -16.7223 14.9032 54.5189 0.0 103.232 0.0 27.1431 6.60122 -13.7599 0.0 0.0 0.0 0.0 0.0 0.0 118.0401 0.195691 -17.7648 27.9661 8.87262 -37.0332 0.0 99.7623 0.0 3.1465 -1.82791 34.2058 0.0 0.0 0.0 0.0 0.0 0.0 3.58207 -5.63666 1.02658 0.0 9.12796 0.0 -11.7807 2.5541 11.115 0.0 -40.1791 0.0 3.41079 -13.2341 8.35046 0.0 28.999 0.0 14.2246 4.6092997 0.681095 0.0 -44.2566 0.0 
  -4.8106600952148435 -0.00932328999042511 9.224019775390625 -66.1169 84.2478 473.618 -1.9057 -3.58577 1.37567 4.35348 5.93247 -1.74205 4.98065 49.8157 -18.7438 136.293 -87.1264 -241.47 -121.9671 -2.58411 10.1018 -16.783 14.8977 54.1311 0.0 103.252 0.0 26.1327 6.56063 -13.6558 0.0 0.0 0.0 0.0 0.0 0.0 118.167 0.251259 -17.6895 28.0045 8.61137 -36.9245 0.0 99.665 0.0 4.19168 -0.76454 37.0664 0.0 0.0 0.0 0.0 0.0 0.0 3.46052 -6.01691 1.17768 0.0 9.27282 0.0 -11.7651 2.7160997 11.0753 0.0 -40.2146 0.0 3.31705 -12.8474 7.21904 0.0 30.9966 0.0 14.0575 4.0577 0.964302 0.0 -44.309998 0.0 
  -4.845669860839844 0.015916099548339845 9.219180297851562 -67.1562 84.3799 474.516 -1.83304 -3.74021 1.44458 3.99038 5.83197 -1.67843 4.17005 49.738 -17.7072 136.088 -87.1606 -241.545 -122.0246 -2.59457 10.197 -16.9561 14.8144 53.8217 0.0 103.265 0.0 25.6121 6.41283 -13.3392 0.0 0.0 0.0 0.0 0.0 0.0 118.2433 0.25004 -17.667 27.821 8.46106 -36.9901 0.0 99.6592 0.0 3.18428 -0.733767 36.6769 0.0 0.0 0.0 0.0 0.0 0.0 3.35741 -6.41917 1.40922 0.0 9.47422 0.0 -11.7351 2.8885002 10.9806 0.0 -40.259003 0.0 3.22323 -12.3796 6.43753 0.0 32.8333 0.0 13.9515 3.7536001 1.32696 0.0 -44.331 0.0 
  -4.883980102539063 0.04013309955596924 9.214130249023437 -68.4947 84.4929 475.75 -1.74579 -3.8658 1.48334 3.66331 5.6133 -1.64199 3.24902 49.7398 -16.3899 134.959 -87.0681 -242.369 -122.0026 -2.67775 10.391 -17.3076 14.6588 53.4206 0.0 103.201 0.0 24.9611 6.22222 -13.3107 0.0 0.0 0.0 0.0 0.0 0.0 118.2962 0.295679 -17.8388 27.7425 8.34683 -36.8906 0.0 99.5604 0.0 3.68326 0.15241 39.2524 0.0 0.0 0.0 0.0 0.0 0.0 3.25455 -6.86981 1.36312 0.0 9.66688 0.0 -11.7371 3.0341997 11.1328 0.0 -40.3797 0.0 3.10523 -11.8656 5.73307 0.0 34.454 0.0 14.3355 3.6615 1.89848 0.0 -45.0785 0.0 
